<svg height="100%" width="100%" id="svg" viewBox="0 0 1440 700" xmlns="http://www.w3.org/2000/svg" class="transition duration-300 ease-in-out delay-150"><path d="M 0,700 C 0,700 0,175 0,175 C 117.70334928229664,157.13397129186603 235.40669856459328,139.26794258373207 313,142 C 390.5933014354067,144.73205741626793 428.07655502392345,168.0622009569378 525,172 C 621.9234449760766,175.9377990430622 778.2870813397129,160.48325358851673 879,168 C 979.7129186602871,175.51674641148327 1024.775119617225,206.00478468899522 1109,211 C 1193.224880382775,215.99521531100478 1316.6124401913876,195.4976076555024 1440,175 C 1440,175 1440,700 1440,700 Z" stroke="none" stroke-width="0" fill="#7bdcb566" class="transition-all duration-300 ease-in-out delay-150"></path><path d="M 0,700 C 0,700 0,350 0,350 C 75.45454545454547,360.10526315789474 150.90909090909093,370.2105263157895 249,364 C 347.09090909090907,357.7894736842105 467.81818181818176,335.2631578947368 583,319 C 698.1818181818182,302.7368421052632 807.8181818181818,292.7368421052632 886,300 C 964.1818181818182,307.2631578947368 1010.909090909091,331.7894736842106 1098,343 C 1185.090909090909,354.2105263157894 1312.5454545454545,352.1052631578947 1440,350 C 1440,350 1440,700 1440,700 Z" stroke="none" stroke-width="0" fill="#7bdcb588" class="transition-all duration-300 ease-in-out delay-150"></path><path d="M 0,700 C 0,700 0,525 0,525 C 105.41626794258374,488.3014354066986 210.8325358851675,451.60287081339715 314,470 C 417.1674641148325,488.39712918660285 518.0861244019138,561.88995215311 600,584 C 681.9138755980862,606.11004784689 744.8229665071772,576.8373205741627 833,550 C 921.1770334928228,523.1626794258373 1034.622009569378,498.7607655502392 1140,495 C 1245.377990430622,491.2392344497608 1342.688995215311,508.11961722488036 1440,525 C 1440,525 1440,700 1440,700 Z" stroke="none" stroke-width="0" fill="#7bdcb5ff" class="transition-all duration-300 ease-in-out delay-150"></path></svg>