<svg height="100%" width="100%" id="svg" viewBox="0 0 1440 700" xmlns="http://www.w3.org/2000/svg" class="transition duration-300 ease-in-out delay-150"><defs><linearGradient id="gradient"><stop offset="5%" stop-color="#fcb90088"></stop><stop offset="95%" stop-color="#32ded488"></stop></linearGradient></defs><path d="M 0,700 C 0,700 0,233 0,233 C 93.59808612440187,240.08133971291866 187.19617224880375,247.16267942583733 285,222 C 382.80382775119625,196.83732057416267 484.8133971291867,139.43062200956936 588,157 C 691.1866028708133,174.56937799043064 795.5502392344498,267.11483253588517 892,293 C 988.4497607655502,318.88516746411483 1076.9856459330144,278.1100478468899 1167,257 C 1257.0143540669856,235.88995215311007 1348.5071770334928,234.44497607655504 1440,233 C 1440,233 1440,700 1440,700 Z" stroke="none" stroke-width="0" fill="url(#gradient)" class="transition-all duration-300 ease-in-out delay-150"></path><defs><linearGradient id="gradient"><stop offset="5%" stop-color="#fcb900ff"></stop><stop offset="95%" stop-color="#32ded4ff"></stop></linearGradient></defs><path d="M 0,700 C 0,700 0,466 0,466 C 109.99043062200957,446.6602870813397 219.98086124401914,427.3205741626794 314,430 C 408.01913875598086,432.6794258373206 486.06698564593296,457.37799043062205 587,452 C 687.933014354067,446.62200956937795 811.7511961722488,411.1674641148325 900,397 C 988.2488038277512,382.8325358851675 1040.9282296650717,389.95215311004785 1125,405 C 1209.0717703349283,420.04784688995215 1324.5358851674641,443.02392344497605 1440,466 C 1440,466 1440,700 1440,700 Z" stroke="none" stroke-width="0" fill="url(#gradient)" class="transition-all duration-300 ease-in-out delay-150"></path></svg>